<svg xmlns="http://www.w3.org/2000/svg" version="1.1" xmlns:xlink="http://www.w3.org/1999/xlink" xmlns:svgjs="http://svgjs.com/svgjs" x="0" y="0" viewBox="0 0 512 512" style="enable-background:new 0 0 512 512" xml:space="preserve" class=""><g><g><path d="m500.295 306.926c6.879-1.72 11.705-7.901 11.705-14.991v-71.87c0-7.091-4.826-13.272-11.705-14.991l-40.469-10.117c-3.285-.821-5.926-3.251-7.024-6.454-2.817-8.217-6.135-16.201-9.916-23.917-1.492-3.044-1.344-6.632.399-9.538l21.468-35.779c3.648-6.08 2.69-13.863-2.324-18.877l-50.82-50.82c-5.014-5.014-12.797-5.972-18.877-2.324l-35.779 21.468c-2.906 1.744-6.495 1.891-9.538.399-7.716-3.781-15.7-7.099-23.917-9.916-3.203-1.098-5.633-3.739-6.454-7.024l-10.117-40.469c-1.721-6.88-7.901-11.706-14.992-11.706h-71.87c-7.091 0-13.272 4.826-14.991 11.705l-10.117 40.469c-.821 3.285-3.251 5.926-6.454 7.024-8.217 2.817-16.201 6.135-23.917 9.916-3.044 1.492-6.632 1.344-9.538-.399l-35.779-21.468c-6.08-3.648-13.863-2.69-18.877 2.324l-50.82 50.82c-5.014 5.014-5.972 12.797-2.324 18.877l21.468 35.779c1.744 2.906 1.891 6.495.399 9.538-3.781 7.716-7.099 15.7-9.916 23.917-1.098 3.203-3.739 5.633-7.024 6.454l-40.469 10.117c-6.88 1.721-11.706 7.901-11.706 14.992v71.87c0 7.091 4.826 13.272 11.705 14.991l40.469 10.117c3.285.821 5.926 3.251 7.024 6.454 2.817 8.217 6.135 16.201 9.916 23.917 1.492 3.044 1.344 6.632-.399 9.538l-21.468 35.779c-3.648 6.08-2.69 13.863 2.324 18.877l50.82 50.82c5.014 5.014 12.797 5.972 18.877 2.324l35.779-21.467c2.906-1.744 6.495-1.891 9.538-.399 7.716 3.781 15.701 7.099 23.917 9.916 3.203 1.098 5.633 3.739 6.454 7.024l10.117 40.469c1.72 6.879 7.901 11.705 14.991 11.705h71.87c7.091 0 13.272-4.826 14.991-11.705l10.117-40.469c.821-3.285 3.251-5.926 6.454-7.024 8.217-2.817 16.201-6.135 23.917-9.916 3.044-1.492 6.632-1.344 9.538.399l35.779 21.467c6.08 3.648 13.863 2.69 18.877-2.324l50.82-50.82c5.014-5.014 5.972-12.797 2.324-18.877l-21.468-35.779c-1.744-2.906-1.891-6.495-.399-9.538 3.781-7.716 7.099-15.701 9.916-23.917 1.098-3.203 3.739-5.633 7.024-6.454z" fill="#528fd8" data-original="#528fd8" class=""/><path d="m377.196 247.893c8.046-8.046 8.046-21.092 0-29.138l-16.117-16.117c-8.046-8.046-21.092-8.046-29.138 0l-98.568 98.568-53.313-53.313c-8.046-8.046-21.092-8.046-29.138 0l-16.117 16.117c-8.046 8.046-8.046 21.092 0 29.138l83.999 83.999c8.046 8.046 21.092 8.046 29.138 0z" fill="#0573ce" data-original="#0573ce" class=""/><path d="m500.295 205.074-37.543-9.386c5.093 7.05 8.04 15.675 8.04 24.857v29.702c0 19.482-13.259 36.464-32.159 41.189l-11.266 2.817c-8.539 2.135-15.462 8.313-18.652 16.517-1.103 2.836-2.266 5.641-3.488 8.415-3.555 8.067-3.04 17.345 1.495 24.904l5.977 9.962c10.023 16.705 7.39 38.089-6.385 51.864l-21.003 21.003c-13.776 13.776-35.159 16.408-51.865 6.385l-9.961-5.977c-7.558-4.535-16.834-5.051-24.901-1.497-2.775 1.223-5.581 2.386-8.418 3.49-8.204 3.191-14.383 10.113-16.517 18.653l-2.817 11.267c-4.725 18.9-21.707 32.159-41.188 32.159h-26.795l2.225 8.899c1.72 6.879 7.901 11.705 14.991 11.705h71.87c7.091 0 13.272-4.826 14.991-11.705l10.117-40.468c.821-3.285 3.251-5.926 6.454-7.024 8.217-2.817 16.201-6.135 23.917-9.916 3.044-1.492 6.632-1.344 9.538.399l35.779 21.467c6.08 3.648 13.863 2.69 18.877-2.324l50.82-50.82c5.014-5.014 5.972-12.797 2.324-18.877l-21.468-35.779c-1.744-2.906-1.891-6.495-.399-9.538 3.781-7.716 7.099-15.701 9.916-23.917 1.098-3.203 3.739-5.633 7.024-6.454l40.469-10.117c6.879-1.72 11.705-7.901 11.705-14.991v-71.87c.001-7.094-4.825-13.274-11.704-14.994z" fill="#0573ce" data-original="#0573ce" class=""/><path d="m377.196 227.289c8.046-8.046 8.046-21.092 0-29.138l-16.117-16.117c-8.046-8.046-21.092-8.046-29.138 0l-95.033 95.033c-1.953 1.953-5.118 1.953-7.071 0l-49.778-49.778c-8.046-8.046-21.092-8.046-29.138 0l-16.117 16.117c-8.046 8.046-8.046 21.092 0 29.138l83.999 83.999c8.046 8.046 21.092 8.046 29.138 0z" fill="#05e39c" data-original="#05e39c" class=""/><path d="m377.196 198.152-16.117-16.117c-5.98-5.98-14.72-7.507-22.118-4.597 8.703 15.355 6.522 35.207-6.566 48.295l-115.359 115.358c-2.474 2.474-5.423 4.181-8.552 5.133l10.319 10.319c8.046 8.046 21.092 8.046 29.138 0l129.254-129.254c8.047-8.046 8.047-21.091.001-29.137z" fill="#0ed290" data-original="#0ed290" class=""/><path d="m462.212 290.965c-.327 0-.657-.021-.991-.065-4.106-.542-6.996-4.31-6.454-8.417 1.15-8.719 1.733-17.629 1.733-26.483 0-8.855-.583-17.765-1.733-26.484-.542-4.106 2.348-7.875 6.455-8.417 4.095-.539 7.874 2.348 8.416 6.455 1.235 9.367 1.862 18.938 1.862 28.446s-.627 19.079-1.862 28.445c-.498 3.774-3.721 6.52-7.426 6.52zm-75.276 136.209c15.119-11.582 28.657-25.12 40.239-40.238 2.519-3.288 1.896-7.996-1.394-10.515-3.287-2.519-7.996-1.895-10.515 1.393-10.779 14.072-23.381 26.673-37.452 37.453-3.289 2.519-3.912 7.227-1.394 10.515 1.478 1.928 3.705 2.939 5.96 2.939 1.592 0 3.195-.505 4.556-1.547zm-102.491 42.464c4.106-.542 6.997-4.31 6.455-8.416-.541-4.107-4.309-6.994-8.416-6.455-17.447 2.301-35.521 2.301-52.969 0-4.104-.545-7.875 2.348-8.416 6.455-.542 4.106 2.349 7.875 6.455 8.416 9.371 1.236 18.941 1.862 28.445 1.862 9.505 0 19.075-.626 28.446-1.862zm-148.866-43.857c2.519-3.288 1.896-7.996-1.394-10.515-14.071-10.78-26.673-23.381-37.452-37.453-2.52-3.288-7.226-3.912-10.515-1.393s-3.912 7.227-1.394 10.515c11.582 15.119 25.12 28.657 40.239 40.238 1.36 1.042 2.964 1.547 4.555 1.547 2.255.001 4.485-1.011 5.961-2.939zm-84.8-134.881c4.106-.542 6.996-4.31 6.454-8.417-1.15-8.718-1.733-17.628-1.733-26.483s.583-17.765 1.733-26.484c.542-4.106-2.348-7.875-6.455-8.417-4.098-.542-7.874 2.348-8.416 6.455-1.235 9.367-1.862 18.938-1.862 28.446s.627 19.079 1.862 28.445c.498 3.774 3.721 6.52 7.426 6.52.327 0 .658-.021.991-.065zm45.954-156.713c10.78-14.073 23.382-26.674 37.452-37.453 3.288-2.519 3.912-7.226 1.394-10.515-2.519-3.288-7.226-3.912-10.515-1.393-15.118 11.581-28.656 25.119-40.239 40.238-2.519 3.288-1.896 7.996 1.394 10.515 1.36 1.042 2.964 1.547 4.555 1.547 2.253 0 4.483-1.012 5.959-2.939zm194.167-83.408c.542-4.106-2.348-7.875-6.455-8.417-18.734-2.472-38.156-2.472-56.891 0-4.107.542-6.997 4.31-6.455 8.417s4.319 6.997 8.416 6.455c17.439-2.301 35.529-2.301 52.969 0 .332.044.663.065.99.065 3.706 0 6.928-2.747 7.426-6.52zm134.881 84.8c3.289-2.519 3.912-7.227 1.394-10.515-11.583-15.12-25.121-28.658-40.239-40.238-3.287-2.52-7.996-1.895-10.515 1.393-2.519 3.289-1.895 7.996 1.394 10.515 14.07 10.779 26.672 23.38 37.452 37.453 1.478 1.928 3.705 2.939 5.96 2.939 1.59 0 3.194-.504 4.554-1.547z" fill="#0573ce" data-original="#0573ce" class=""/><g fill="#0067c5"><path d="m427.175 386.936c2.519-3.288 1.896-7.996-1.394-10.515-2.081-1.595-4.732-1.929-7.036-1.126.154 11.177-4.101 22.289-12.431 30.619l-21.003 21.003c-.595.595-1.204 1.169-1.827 1.722 1.217-.181 2.406-.664 3.452-1.465 15.119-11.582 28.657-25.12 40.239-40.238z" fill="#0067c5" data-original="#0067c5" class=""/><path d="m282.484 454.767c-3.582.472-7.191.848-10.816 1.126l-.836 3.345c-1.086 4.343-2.82 8.389-5.082 12.044 6.267-.28 12.524-.83 18.694-1.644 4.106-.542 6.997-4.31 6.455-8.416-.54-4.107-4.307-6.994-8.415-6.455z" fill="#0067c5" data-original="#0067c5" class=""/><path d="m461.221 290.9c.334.044.664.065.991.065 3.705 0 6.928-2.747 7.426-6.52 1.235-9.367 1.862-18.937 1.862-28.445 0-5.847-.237-11.717-.707-17.549v11.796c0 13.289-6.17 25.415-16.091 33.281.027 3.683 2.764 6.876 6.519 7.372z" fill="#0067c5" data-original="#0067c5" class=""/></g></g></g></svg>