<svg xmlns="http://www.w3.org/2000/svg" version="1.1" xmlns:xlink="http://www.w3.org/1999/xlink" xmlns:svgjs="http://svgjs.com/svgjs" x="0" y="0" viewBox="0 0 24 24" style="enable-background:new 0 0 512 512" xml:space="preserve" class=""><g><path id="trash-undo" d="m18.56 7.75h-13.12a.305.305 0 0 0 -.3.32l.67 10.13a2.718 2.718 0 0 0 3 2.8h6.38a2.718 2.718 0 0 0 3-2.8l.67-10.13a.305.305 0 0 0 -.3-.32zm-3.43 8.93a.757.757 0 0 1 -.73.57 1.1 1.1 0 0 1 -.18-.02.756.756 0 0 1 -.55-.91 2.781 2.781 0 0 0 -.71-2.6 2.573 2.573 0 0 0 -1.82-.79l.24.24a.754.754 0 0 1 0 1.06.748.748 0 0 1 -1.06 0l-1.35-1.35a.754.754 0 0 1 0-1.06l1.35-1.35a.754.754 0 0 1 1.06 0 .735.735 0 0 1 .05.98 4.152 4.152 0 0 1 2.61 1.23 4.278 4.278 0 0 1 1.09 4zm4.87-11.43h-4.21a4 4 0 0 1 -.25-.62l-.2-.6a1.492 1.492 0 0 0 -1.42-1.03h-3.84a1.492 1.492 0 0 0 -1.42 1.03l-.2.6a4 4 0 0 1 -.25.62h-4.21a.75.75 0 0 0 0 1.5h16a.75.75 0 0 0 0-1.5z" fill="currentColor" data-original="#000000" class=""/></g></svg>